
<!-- Generator: visioncortex VTracer 0.6.4 -->
<svg version="1.1" xmlns="http://www.w3.org/2000/svg" viewBox="0 0 220 221" preserveAspectRatio="xMidYMid meet">
<path d="M0 0 C3.482 2.003 6.194 4.387 8 8 C10.611 8.52 13.181 8.939 15.812 9.312 C23.442 10.539 30.064 12.498 37 16 C37.984 16.481 38.967 16.962 39.98 17.457 C48.454 21.962 54.534 28.06 61 35 C61.66 35.66 62.32 36.32 63 37 C73 52.663 73 52.663 73 61 C73.965 61.203 73.965 61.203 74.949 61.41 C87.949 64.507 98.45 70.646 107 81 C109.041 84.343 109.44 86.918 108.762 90.859 C105.819 99.129 97.087 102.819 89.724 106.387 C86.195 108.048 82.643 109.6 79 111 C78.663 113.395 78.33 115.791 78 118.188 C77.905 118.861 77.809 119.535 77.711 120.229 C76.507 128.759 76.507 128.759 80.312 136.188 C87.039 146.4 88.517 156.571 86.566 168.695 C83.257 181.48 75.198 192.321 64.062 199.25 C45.784 209.535 25.798 211.453 5.551 205.809 C-14.389 199.824 -32.136 188.382 -44 171 C-44 170.34 -44 169.68 -44 169 C-44.606 169.046 -45.212 169.093 -45.836 169.141 C-55.795 169.57 -63.346 166.319 -70.961 159.969 C-77.804 153.361 -80.224 146.207 -82 137 C-83.087 136.853 -83.087 136.853 -84.195 136.703 C-90.165 135.78 -94.318 134.862 -99 131 C-99.598 130.567 -100.196 130.134 -100.812 129.688 C-102.867 126.768 -102.944 124.558 -103 121 C-99.993 108.571 -90.757 98.723 -81 91 C-79.411 90.155 -79.411 90.155 -77.789 89.293 C-74.347 86.463 -74.186 84.97 -73.712 80.705 C-73.607 79.49 -73.607 79.49 -73.5 78.25 C-70.758 55.934 -59.877 37.104 -42.188 23.188 C-37.809 20.006 -33.39 17.675 -28.5 15.438 C-23.154 12.92 -20.849 11.301 -18.82 5.801 C-17.62 3.165 -15.691 1.86 -13.121 0.633 C-8.705 -0.685 -4.518 -0.901 0 0 Z M-11 10 C-8.36 9.67 -5.72 9.34 -3 9 C-3 8.67 -3 8.34 -3 8 C-7.493 7.575 -7.493 7.575 -11 10 Z M-14 21 C-14.825 21.516 -15.65 22.031 -16.5 22.562 C-24.119 29.991 -27.097 40.046 -30 50 C-30 50.33 -30 50.66 -30 51 C-29.208 51.086 -28.417 51.171 -27.601 51.26 C-24.004 51.65 -20.408 52.044 -16.812 52.438 C-15.567 52.572 -14.321 52.707 -13.037 52.846 C-11.835 52.978 -10.633 53.11 -9.395 53.246 C-8.29 53.367 -7.185 53.487 -6.046 53.611 C-3.325 53.959 -0.684 54.441 2 55 C9.056 55.907 13.553 52.949 19.438 49.5 C20.36 48.975 21.282 48.451 22.232 47.91 C24.496 46.62 26.751 45.316 29 44 C24.96 33.475 17.4 24.815 7.75 19.062 C0.393 16.978 -7.48 16.548 -14 21 Z M25 21 C26.407 24.877 28.239 28.119 30.5 31.562 C32.519 34.647 34.429 37.662 36 41 C38.149 40.579 40.294 40.137 42.438 39.688 C43.632 39.444 44.827 39.2 46.059 38.949 C47.029 38.636 48 38.323 49 38 C49.33 37.01 49.66 36.02 50 35 C38.824 25.087 38.824 25.087 25 21 Z M-46.312 37.875 C-50.822 42.507 -53.922 47.33 -57 53 C-50.4 52.34 -43.8 51.68 -37 51 C-36.443 48.566 -35.886 46.133 -35.312 43.625 C-33.705 36.916 -31.509 30.983 -28 25 C-34.353 25 -41.967 33.707 -46.312 37.875 Z M18 58 C21.056 58.915 23.578 59.05 26.754 58.844 C27.683 58.79 28.611 58.737 29.568 58.681 C30.556 58.622 31.544 58.562 32.562 58.5 C43.124 57.937 53.462 58.201 64 59 C63.55 57.572 63.093 56.147 62.633 54.723 C62.379 53.929 62.125 53.135 61.864 52.317 C60.668 49.108 59.084 46.709 57 44 C43.815 44 29.371 52.245 18 58 Z M-60.746 62.176 C-62.535 64.778 -63.022 67.299 -63.688 70.375 C-63.939 71.496 -64.19 72.618 -64.449 73.773 C-64.933 76.605 -65.113 79.139 -65 82 C-63.886 81.484 -62.773 80.969 -61.625 80.438 C-46.736 73.885 -31.765 68.998 -16 65 C-15.294 64.819 -14.587 64.638 -13.859 64.452 C-10.578 63.613 -7.293 62.792 -4 62 C-4 61.67 -4 61.34 -4 61 C-33.2 55.966 -33.2 55.966 -60.746 62.176 Z M-88 109 C-87.67 109.66 -87.34 110.32 -87 111 C-86.245 110.588 -85.489 110.175 -84.711 109.75 C-59.555 96.554 -31.671 89.645 -3.958 84.22 C-2.878 84.008 -2.878 84.008 -1.777 83.791 C0.197 83.405 2.171 83.025 4.146 82.645 C6.885 82.293 6.885 82.293 8 81 C9.975 80.803 11.956 80.672 13.938 80.562 C18.922 80.277 23.894 79.933 28.867 79.492 C49.947 77.652 70.897 77.354 92 79 C82.691 68.9 64.345 66.466 51.244 65.876 C4.436 64.663 -54.107 73.323 -88 109 Z M41.5 100.812 C40.655 101.866 39.818 102.925 39 104 C33.549 101.345 33.549 101.345 31.02 99.758 C23.103 94.884 15.092 93.073 5.875 94.812 C-1.664 97.058 -7.008 101.768 -11.508 108.133 C-14.788 114.349 -14.956 121.143 -14 128 C-11.549 135.687 -7.537 140.551 -0.395 144.406 C2.052 145.649 4.512 146.844 7 148 C6.409 151.519 5.442 154.4 3.938 157.625 C0.968 164.956 0.924 171.73 3.562 179.188 C7.418 187.681 13.365 193.478 22 197 C33.142 200.665 44.537 198.94 55 194 C63.62 189.228 70.767 182.994 75 174 C74.67 173.34 74.34 172.68 74 172 C73.25 172.338 72.5 172.675 71.727 173.023 C54.328 180.605 36.961 181.187 19 175 C16.047 173.738 16.047 173.738 14 172 C13.688 168.812 13.688 168.812 14 166 C15.831 166.524 15.831 166.524 17.699 167.059 C36.556 172.329 53.928 174.447 72 165 C74.668 163.47 75.945 162.398 78 160 C79.247 153.766 76.733 147.576 74 142 C72.776 140.38 71.505 138.794 70.188 137.25 C67.007 133.404 67.007 133.404 66.938 129.625 C67.288 128.429 67.639 127.233 68 126 C71.009 111.698 71.009 111.698 67 98 C63.757 94.283 61.804 92.216 56.875 91.625 C50.146 92.276 45.839 95.79 41.5 100.812 Z M-68.559 118.203 C-72.264 122.822 -73.617 128.974 -73.348 134.832 C-72.106 142.572 -69.129 149.937 -63 155 C-56.681 159.296 -50.628 161.356 -43 160 C-38.231 158.405 -34.524 156.486 -32 152 C-30.785 141.851 -30.674 126.206 -36.734 117.512 C-46.225 108.628 -59.221 109.451 -68.559 118.203 Z " fill="currentColor" transform="translate(107,3)"/>
<path d="M0 0 C4.822 2.366 7.526 5.243 10 10 C10.25 13.375 10.25 13.375 10 16 C9.01 16.33 8.02 16.66 7 17 C6.129 19.714 6.129 19.714 6 23 C7.814 26.348 7.814 26.348 10 29 C9.34 29.99 8.68 30.98 8 32 C4.043 31.772 1.67 31.55 -1.438 29 C-3.551 24.941 -3.742 21.495 -3 17 C-1.438 14.625 -1.438 14.625 0 13 C-0.33 12.01 -0.66 11.02 -1 10 C-3.75 9.054 -3.75 9.054 -7 9 C-9.604 11.354 -9.604 11.354 -12 14 C-14.75 14.875 -14.75 14.875 -17 15 C-17.33 14.67 -17.66 14.34 -18 14 C-17.696 8.73 -16.751 5.751 -13 2 C-8.752 -0.538 -4.834 -0.673 0 0 Z " fill="currentColor" transform="translate(59,122)"/>
<path d="M0 0 C4.024 0.655 5.293 2.179 7.688 5.438 C9.081 10.061 9.082 13.433 7.312 17.938 C5.688 20.438 5.688 20.438 4.688 21.438 C-1.542 22.025 -1.542 22.025 -4.688 19.625 C-7.616 15.683 -7.643 12.226 -7.312 7.438 C-4.051 0.766 -4.051 0.766 0 0 Z " fill="currentColor" transform="translate(121.3125,115.5625)"/>
<path d="M0 0 C4.238 0.951 5.661 2.049 8.062 5.688 C8.415 10.14 8.014 14.085 5.715 17.957 C4.062 19.688 4.062 19.688 0.625 20.312 C-2.938 19.688 -2.938 19.688 -5.375 17.125 C-7.17 13.176 -7.55 10.976 -6.938 6.688 C-4.246 0.994 -4.246 0.994 0 0 Z " fill="currentColor" transform="translate(161.9375,110.3125)"/>
<path d="M0 0 C3.943 1.183 5.62 2.696 8.125 5.938 C8.438 8.75 8.438 8.75 8.125 10.938 C-4.183 8.63 -4.183 8.63 -5.875 6.938 C-6.125 4.5 -6.125 4.5 -5.875 1.938 C-2.875 -0.062 -2.875 -0.062 0 0 Z " fill="currentColor" transform="translate(145.875,139.0625)"/>
<path d="M0 0 C1.207 0.031 1.207 0.031 2.438 0.062 C3.312 2.125 3.312 2.125 3.438 5.062 C1.698 7.653 -0.366 9.854 -2.562 12.062 C-3.553 11.732 -4.542 11.403 -5.562 11.062 C-6.607 7.74 -6.779 6.495 -5.188 3.312 C-2.845 0.069 -2.845 0.069 0 0 Z " fill="currentColor" transform="translate(164.5625,136.9375)"/>
<path d="" fill="currentColor" transform="translate(0,0)"/>
</svg>